{
	"asset":{
		"generator":"Khronos glTF Blender I/O v4.2.57",
		"version":"2.0"
	},
	"extensionsUsed":[
		"KHR_materials_specular"
	],
	"scene":0,
	"scenes":[
		{
			"name":"Scene",
			"nodes":[
				0
			]
		}
	],
	"nodes":[
		{
			"mesh":0,
			"name":"glass001",
			"rotation":[
				0,
				0,
				-1,
				4.371149486814829e-08
			],
			"scale":[
				0.002795066684484482,
				0.003318408504128456,
				0.002795066684484482
			],
			"translation":[
				0.42715975642204285,
				0,
				0.43813344836235046
			]
		}
	],
	"materials":[
		{
			"doubleSided":true,
			"extensions":{
				"KHR_materials_specular":{
					"specularColorFactor":[
						2.0,
						2.0,
						2.0
					]
				}
			},
			"name":"03 - Default.001",
			"pbrMetallicRoughness":{
				"baseColorFactor":[
					0.8671356439590454,
					0.5795467495918274,
					0,
					1
				],
				"metallicFactor":0,
				"roughnessFactor":0.5527864098548889
			}
		},
		{
			"doubleSided":true,
			"extensions":{
				"KHR_materials_specular":{
					"specularColorFactor":[
						2.0,
						2.0,
						2.0
					]
				}
			},
			"name":"Material #48.007",
			"pbrMetallicRoughness":{
				"baseColorTexture":{
					"index":0
				},
				"metallicRoughnessTexture":{
					"index":1
				}
			}
		}
	],
	"meshes":[
		{
			"name":"Mesh.009",
			"primitives":[
				{
					"attributes":{
						"POSITION":0,
						"NORMAL":1,
						"TEXCOORD_0":2
					},
					"indices":3,
					"material":0
				},
				{
					"attributes":{
						"POSITION":4,
						"NORMAL":5,
						"TEXCOORD_0":6
					},
					"indices":7,
					"material":1
				}
			]
		}
	],
	"textures":[
		{
			"sampler":0,
			"source":0
		},
		{
			"sampler":0,
			"source":1
		}
	],
	"images":[
		{
			"bufferView":8,
			"mimeType":"image/png",
			"name":"reinforced-metal_albedo"
		},
		{
			"bufferView":9,
			"mimeType":"image/png",
			"name":"reinforced-metal_metallic.png-reinforced-metal_roughness.png"
		}
	],
	"accessors":[
		{
			"bufferView":0,
			"componentType":5126,
			"count":589,
			"max":[
				12.139923095703125,
				15.662596702575684,
				11.95549201965332
			],
			"min":[
				-12.139923095703125,
				-16.581981658935547,
				-11.955491065979004
			],
			"type":"VEC3"
		},
		{
			"bufferView":1,
			"componentType":5126,
			"count":589,
			"type":"VEC3"
		},
		{
			"bufferView":2,
			"componentType":5126,
			"count":589,
			"type":"VEC2"
		},
		{
			"bufferView":3,
			"componentType":5123,
			"count":1176,
			"type":"SCALAR"
		},
		{
			"bufferView":4,
			"componentType":5126,
			"count":1522,
			"max":[
				14.96117115020752,
				15.86111831665039,
				14.756548881530762
			],
			"min":[
				-14.961170196533203,
				-32.50146484375,
				-14.756549835205078
			],
			"type":"VEC3"
		},
		{
			"bufferView":5,
			"componentType":5126,
			"count":1522,
			"type":"VEC3"
		},
		{
			"bufferView":6,
			"componentType":5126,
			"count":1522,
			"type":"VEC2"
		},
		{
			"bufferView":7,
			"componentType":5123,
			"count":3432,
			"type":"SCALAR"
		}
	],
	"bufferViews":[
		{
			"buffer":0,
			"byteLength":7068,
			"byteOffset":0,
			"target":34962
		},
		{
			"buffer":0,
			"byteLength":7068,
			"byteOffset":7068,
			"target":34962
		},
		{
			"buffer":0,
			"byteLength":4712,
			"byteOffset":14136,
			"target":34962
		},
		{
			"buffer":0,
			"byteLength":2352,
			"byteOffset":18848,
			"target":34963
		},
		{
			"buffer":0,
			"byteLength":18264,
			"byteOffset":21200,
			"target":34962
		},
		{
			"buffer":0,
			"byteLength":18264,
			"byteOffset":39464,
			"target":34962
		},
		{
			"buffer":0,
			"byteLength":12176,
			"byteOffset":57728,
			"target":34962
		},
		{
			"buffer":0,
			"byteLength":6864,
			"byteOffset":69904,
			"target":34963
		},
		{
			"buffer":0,
			"byteLength":877003,
			"byteOffset":76768
		},
		{
			"buffer":0,
			"byteLength":838215,
			"byteOffset":953772
		}
	],
	"samplers":[
		{
			"magFilter":9729,
			"minFilter":9987
		}
	],
	"buffers":[
		{
			"byteLength":1791988,
			"uri":"data:application/octet-stream;base64,"
		}
	]
}
