{
	"asset":{
		"generator":"Khronos glTF Blender I/O v4.2.57",
		"version":"2.0"
	},
	"extensionsUsed":[
		"KHR_materials_specular"
	],
	"scene":0,
	"scenes":[
		{
			"name":"Scene",
			"nodes":[
				0
			]
		}
	],
	"nodes":[
		{
			"mesh":0,
			"name":"Box002",
			"scale":[
				0.06605137884616852,
				0.04038262367248535,
				0.08177544176578522
			],
			"translation":[
				0.4305269122123718,
				0,
				0.5527897477149963
			]
		}
	],
	"materials":[
		{
			"doubleSided":true,
			"extensions":{
				"KHR_materials_specular":{
					"specularColorFactor":[
						2.0,
						2.0,
						2.0
					]
				}
			},
			"name":"Material #52.001",
			"pbrMetallicRoughness":{
				"baseColorTexture":{
					"index":0
				},
				"metallicRoughnessTexture":{
					"index":1
				}
			}
		}
	],
	"meshes":[
		{
			"name":"Mesh.010",
			"primitives":[
				{
					"attributes":{
						"POSITION":0,
						"NORMAL":1,
						"TEXCOORD_0":2
					},
					"indices":3,
					"material":0
				}
			]
		}
	],
	"textures":[
		{
			"sampler":0,
			"source":0
		},
		{
			"sampler":0,
			"source":1
		}
	],
	"images":[
		{
			"bufferView":4,
			"mimeType":"image/png",
			"name":"bare-wood1_albedo"
		},
		{
			"bufferView":5,
			"mimeType":"image/png",
			"name":"bare-wood1_metallic.png-bare-wood1_roughness.png"
		}
	],
	"accessors":[
		{
			"bufferView":0,
			"componentType":5126,
			"count":1122,
			"max":[
				2.3453214168548584,
				5.08243989944458,
				3.336219310760498
			],
			"min":[
				-2.34683895111084,
				0,
				-3.336219310760498
			],
			"type":"VEC3"
		},
		{
			"bufferView":1,
			"componentType":5126,
			"count":1122,
			"type":"VEC3"
		},
		{
			"bufferView":2,
			"componentType":5126,
			"count":1122,
			"type":"VEC2"
		},
		{
			"bufferView":3,
			"componentType":5123,
			"count":2292,
			"type":"SCALAR"
		}
	],
	"bufferViews":[
		{
			"buffer":0,
			"byteLength":13464,
			"byteOffset":0,
			"target":34962
		},
		{
			"buffer":0,
			"byteLength":13464,
			"byteOffset":13464,
			"target":34962
		},
		{
			"buffer":0,
			"byteLength":8976,
			"byteOffset":26928,
			"target":34962
		},
		{
			"buffer":0,
			"byteLength":4584,
			"byteOffset":35904,
			"target":34963
		},
		{
			"buffer":0,
			"byteLength":1155209,
			"byteOffset":40488
		},
		{
			"buffer":0,
			"byteLength":1680760,
			"byteOffset":1195700
		}
	],
	"samplers":[
		{
			"magFilter":9729,
			"minFilter":9987
		}
	],
	"buffers":[
		{
			"byteLength":2876460,
			"uri":"data:application/octet-stream;base64,"
		}
	]
}
