{"asset": {"version": "2.0", "generator": "maya-glTFExport"}, "scene": 0, "scenes": [{"name": "defaultScene", "nodes": [0]}], "nodes": [{"translation": [0.0, -6.0, 0.0], "rotation": [-4.329780281177467e-17, 0.7071067811865476, 0.7071067811865476, 4.329780281177467e-17], "scale": [1.704102, 1.704102, 1.704102], "mesh": 0}], "meshes": [{"primitives": [{"mode": 4, "attributes": {"POSITION": 7, "NORMAL": 8, "TEXCOORD_0": 9}, "indices": 6, "material": 0}]}], "materials": [{"pbrMetallicRoughness": {"baseColorTexture": {"index": 0}, "metallicFactor": 0, "roughnessFactor": 1}, "alphaMode": "OPAQUE"}], "images": [{"mimeType": "image/png", "uri": "data:application/octet-stream;base64,"}], "textures": [{"source": 0}], "animations": [{"channels": [{"target": {"node": 0, "path": "translation"}, "sampler": 0}, {"target": {"node": 0, "path": "rotation"}, "sampler": 1}, {"target": {"node": 0, "path": "scale"}, "sampler": 2}], "samplers": [{"input": 0, "output": 1, "interpolation": "LINEAR"}, {"input": 2, "output": 3, "interpolation": "LINEAR"}, {"input": 4, "output": 5, "interpolation": "LINEAR"}]}], "buffers": [{"byteLength": 7824, "uri": "data:application/octet-stream;base64,"}], "bufferViews": [{"buffer": 0, "byteOffset": 0, "byteLength": 12}, {"buffer": 0, "byteOffset": 12, "byteLength": 36}, {"buffer": 0, "byteOffset": 48, "byteLength": 12}, {"buffer": 0, "byteOffset": 60, "byteLength": 48}, {"buffer": 0, "byteOffset": 108, "byteLength": 12}, {"buffer": 0, "byteOffset": 120, "byteLength": 36}, {"buffer": 0, "byteOffset": 156, "byteLength": 468, "target": 34963}, {"buffer": 0, "byteOffset": 624, "byteLength": 2700, "target": 34962}, {"buffer": 0, "byteOffset": 3324, "byteLength": 2700, "target": 34962}, {"buffer": 0, "byteOffset": 6024, "byteLength": 1800, "target": 34962}], "accessors": [{"bufferView": 0, "byteOffset": 0, "componentType": 5126, "count": 3, "type": "SCALAR", "max": [2.0], "min": [0.0]}, {"bufferView": 1, "byteOffset": 0, "componentType": 5126, "count": 3, "type": "VEC3"}, {"bufferView": 2, "byteOffset": 0, "componentType": 5126, "count": 3, "type": "SCALAR", "max": [2.0], "min": [0.0]}, {"bufferView": 3, "byteOffset": 0, "componentType": 5126, "count": 3, "type": "VEC4"}, {"bufferView": 4, "byteOffset": 0, "componentType": 5126, "count": 3, "type": "SCALAR", "max": [2.0], "min": [0.0]}, {"bufferView": 5, "byteOffset": 0, "componentType": 5126, "count": 3, "type": "VEC3"}, {"bufferView": 6, "byteOffset": 0, "componentType": 5123, "count": 234, "type": "SCALAR", "max": [224], "min": [0]}, {"bufferView": 7, "byteOffset": 0, "componentType": 5126, "count": 225, "type": "VEC3", "max": [11.701354026794434, 11.701354026794434, 8.588159561157227], "min": [-11.701354026794434, -11.701354026794434, -8.58816146850586]}, {"bufferView": 8, "byteOffset": 0, "componentType": 5126, "count": 225, "type": "VEC3"}, {"bufferView": 9, "byteOffset": 0, "componentType": 5126, "count": 225, "type": "VEC2"}]}